<svg xmlns="http://www.w3.org/2000/svg" viewBox="0 0 1200 160" preserveAspectRatio="none">
  <rect width="1200" height="160" fill="black"/>
  <path d="M0,96 C120,64 240,128 360,96 C480,64 600,128 720,96 C840,64 960,128 1080,96 C1140,80 1170,72 1200,68 L1200,160 L0,160 Z" fill="#fff" opacity="0.14"/>
  <path d="M0,78 C140,40 260,112 400,78 C540,44 660,116 800,78 C940,40 1060,112 1200,78" fill="none" stroke="#fff" stroke-width="10" opacity="0.08"/>
  <path d="M0,116 C160,86 260,146 420,116 C580,86 680,146 840,116 C1000,86 1080,138 1200,116" fill="none" stroke="#fff" stroke-width="8" opacity="0.06"/>
</svg>
