<svg xmlns="http://www.w3.org/2000/svg" viewBox="0 0 900 700">
  <rect width="900" height="700" fill="white"/>
  <g fill="#000" opacity="0.07">
    <path d="M120 120c70-40 160 10 200 80s10 160-60 200-160 10-200-70-10-170 60-210z"/>
    <path d="M620 80c60-30 130 30 150 90s-5 130-65 160-130-25-150-85 5-135 65-165z"/>
    <path d="M540 420c80-55 190 5 220 90s-10 190-90 230-190-10-220-95 10-170 90-225z"/>
    <path d="M120 480c50-30 110 10 130 55s-5 115-55 140-110-10-130-55 5-115 55-140z"/>
  </g>
  <g fill="none" stroke="#000" stroke-width="10" opacity="0.05">
    <path d="M40 260c120-60 260 40 380-20s260 40 440-40"/>
    <path d="M60 620c140-80 260 30 380-30s280 30 400-50"/>
  </g>
</svg>
